<svg width="16" height="9" viewBox="0 0 16 9" fill="none" xmlns="http://www.w3.org/2000/svg">
<path d="M14.2478 0.657499L8.00028 6.7475L1.75278 0.657499C1.64116 0.548471 1.49131 0.487433 1.33528 0.487433C1.17924 0.487433 1.0294 0.548471 0.917778 0.657499C0.863731 0.710455 0.820794 0.773662 0.791481 0.843419C0.762169 0.913177 0.74707 0.988083 0.74707 1.06375C0.74707 1.13942 0.762169 1.21432 0.791481 1.28408C0.820794 1.35384 0.863731 1.41704 0.917778 1.47L7.56403 7.95C7.68075 8.06377 7.83729 8.12744 8.00028 8.12744C8.16327 8.12744 8.31981 8.06377 8.43653 7.95L15.0828 1.47125C15.1372 1.41825 15.1805 1.35489 15.21 1.2849C15.2395 1.21491 15.2548 1.13972 15.2548 1.06375C15.2548 0.987782 15.2395 0.912584 15.21 0.842595C15.1805 0.772606 15.1372 0.709244 15.0828 0.656249C14.9712 0.547221 14.8213 0.486183 14.6653 0.486183C14.5092 0.486183 14.3594 0.547221 14.2478 0.656249V0.657499Z" fill="#0D0629"/>
</svg>
